# Blender v2.93.1 OBJ File: 'hedgehog.blend'
# www.blender.org
mtllib hedgehog.mtl
o hedgehog_Cube.002
v -1.120479 1.399769 2.209707
v 0.513114 0.028264 3.077945
v -1.111470 1.513209 2.371950
v 0.522123 0.141704 3.240189
v -1.250314 1.383209 2.427833
v 0.383279 0.011704 3.296071
v -1.227570 1.372803 2.419566
v -1.116690 1.386945 2.233285
v 0.489644 0.038326 3.087035
v 0.378764 0.024184 3.273317
v -1.112452 1.478169 2.369410
v 0.493882 0.129549 3.223161
v -1.238306 1.403014 2.436523
v 0.395287 0.031508 3.304762
v -1.108381 1.419585 2.218246
v 0.525212 0.048079 3.086484
v -1.238306 1.403014 2.436523
v -1.108381 1.419585 2.218246
v 0.525212 0.048079 3.086484
v 0.395287 0.031508 3.304762
v -1.220695 1.384127 2.424518
v -1.109815 1.398269 2.238236
v 0.496518 0.049649 3.091987
v 0.385639 0.035507 3.278269
v -0.897566 1.297759 2.483620
v 0.493882 0.129549 3.223161
v -0.034863 0.218677 1.654410
v -0.111406 1.443949 3.679240
v -0.179806 0.100695 1.720325
v -0.256348 1.325967 3.745155
v -0.021301 0.001577 1.786296
v -0.097843 1.226849 3.811125
v -0.022713 0.026908 1.793384
v -0.034295 0.212313 1.680753
v -0.109596 1.417701 3.672722
v -0.098013 1.232296 3.785354
v -0.151030 0.111956 1.737068
v -0.226330 1.317344 3.729038
v -0.045989 0.000005 1.786313
v -0.122531 1.225278 3.811143
v -0.059560 0.217256 1.654337
v -0.136102 1.442528 3.679167
v -0.045989 0.000005 1.786313
v -0.059560 0.217256 1.654337
v -0.136102 1.442528 3.679167
v -0.122531 1.225278 3.811143
v -0.036828 0.026026 1.793384
v -0.048410 0.211432 1.680753
v -0.123710 1.416819 3.672723
v -0.112128 1.231414 3.785354
v -0.151030 0.111956 1.737068
v -0.226330 1.317344 3.729038
v -1.162164 0.122151 3.481753
v 0.539402 1.546587 2.550995
v -1.149724 0.003764 3.323315
v 0.551842 1.428200 2.392558
v -1.289355 0.130235 3.261600
v 0.412212 1.554670 2.330843
v -1.266844 0.141173 3.269817
v -1.158222 0.134269 3.457829
v 0.516172 1.535958 2.541935
v 0.407549 1.542861 2.353923
v -1.151151 0.038852 3.324730
v 0.523243 1.440541 2.408836
v -1.277003 0.110314 3.253694
v 0.424563 1.534749 2.322936
v -1.149724 0.102224 3.473999
v 0.551842 1.526660 2.543242
v -1.277003 0.110314 3.253694
v -1.149724 0.102224 3.473999
v 0.551842 1.526660 2.543241
v 0.424563 1.534749 2.322936
v -1.259773 0.129783 3.265314
v -1.151151 0.122880 3.453326
v 0.523243 1.524568 2.537432
v 0.414621 1.531472 2.349419
v -1.151151 0.038852 3.324730
v 0.523243 1.440541 2.408836
vt 0.375000 0.550000
vt 0.375000 0.750000
vt 0.625000 0.750000
vt 0.625000 0.550000
vt 0.375000 0.500000
vt 0.375000 0.750000
vt 0.375000 1.000000
vt 0.000000 0.000000
vt 0.000000 0.000000
vt 0.000000 0.000000
vt 0.000000 0.000000
vt 0.000000 0.000000
vt 0.000000 0.000000
vt 0.000000 0.000000
vt 0.000000 0.000000
vt 0.000000 0.000000
vt 0.000000 0.000000
vt 0.375000 0.500000
vt 0.375000 0.750000
vt 0.625000 0.750000
vt 0.625000 0.500000
vt 0.375000 1.000000
vt 0.625000 1.000000
vt 0.625000 1.000000
vt 0.375000 1.000000
vt 0.375000 0.500000
vt 0.625000 0.500000
vt 0.625000 1.000000
vt 0.625000 0.750000
vt 0.625000 0.500000
vt 0.625000 1.000000
vt 0.375000 1.000000
vt 0.375000 0.950000
vt 0.625000 0.950000
vt 0.375000 0.500000
vt 0.625000 0.500000
vt 0.375000 0.550000
vt 0.375000 0.750000
vt 0.625000 0.750000
vt 0.625000 0.550000
vt 0.375000 0.500000
vt 0.375000 0.750000
vt 0.375000 1.000000
vt 0.000000 0.000000
vt 0.000000 0.000000
vt 0.000000 0.000000
vt 0.000000 0.000000
vt 0.000000 0.000000
vt 0.000000 0.000000
vt 0.000000 0.000000
vt 0.000000 0.000000
vt 0.000000 0.000000
vt 0.000000 0.000000
vt 0.375000 0.500000
vt 0.375000 0.750000
vt 0.625000 0.750000
vt 0.625000 0.500000
vt 0.375000 1.000000
vt 0.625000 1.000000
vt 0.625000 1.000000
vt 0.375000 1.000000
vt 0.375000 0.500000
vt 0.625000 0.500000
vt 0.625000 1.000000
vt 0.625000 0.750000
vt 0.625000 0.500000
vt 0.625000 1.000000
vt 0.375000 1.000000
vt 0.375000 0.950000
vt 0.625000 0.950000
vt 0.375000 0.500000
vt 0.625000 0.500000
vt 0.375000 0.550000
vt 0.375000 0.750000
vt 0.625000 0.750000
vt 0.625000 0.550000
vt 0.375000 0.500000
vt 0.375000 0.750000
vt 0.375000 1.000000
vt 0.000000 0.000000
vt 0.000000 0.000000
vt 0.000000 0.000000
vt 0.000000 0.000000
vt 0.000000 0.000000
vt 0.000000 0.000000
vt 0.000000 0.000000
vt 0.000000 0.000000
vt 0.000000 0.000000
vt 0.000000 0.000000
vt 0.375000 0.500000
vt 0.375000 0.750000
vt 0.625000 0.750000
vt 0.625000 0.500000
vt 0.375000 1.000000
vt 0.625000 1.000000
vt 0.625000 1.000000
vt 0.375000 1.000000
vt 0.375000 0.500000
vt 0.625000 0.500000
vt 0.625000 1.000000
vt 0.625000 0.750000
vt 0.625000 0.500000
vt 0.625000 1.000000
vt 0.375000 1.000000
vt 0.375000 0.950000
vt 0.625000 0.950000
vt 0.375000 0.500000
vt 0.625000 0.500000
vn 0.0172 -0.5201 -0.8539
vn 0.2182 0.9547 0.2023
vn 0.7094 -0.5955 0.3770
vn -0.7094 0.5955 -0.3770
vn 0.0601 -0.4818 -0.8742
vn -0.7044 -0.5793 0.4102
vn -0.4816 -0.8001 -0.3578
vn -0.4924 -0.7954 -0.3535
vn -0.4909 -0.8013 -0.3420
vn -0.4798 -0.8059 -0.3468
vn 0.7046 0.6122 -0.3587
vn -0.0172 0.5201 0.8539
vn 0.1753 0.6672 0.7240
vn -0.7046 -0.6122 0.3587
vn 0.6789 0.7210 -0.1384
vn 0.0774 0.9896 0.1212
vn -0.5111 -0.0662 0.8570
vn 0.5076 0.0605 -0.8595
vn 0.6680 0.6476 -0.3666
vn 0.0323 -0.5174 -0.8551
vn -0.0323 0.5174 0.8551
vn 0.6214 0.6805 -0.3883
vn 0.7013 -0.5979 0.3883
vn 0.9975 0.0699 -0.0046
vn 0.9983 0.0578 -0.0076
vn 0.9985 0.0543 0.0049
vn 0.9977 0.0669 0.0076
vn -0.7434 0.5594 -0.3666
vn -0.6680 -0.6476 0.3666
vn -0.8452 -0.4708 0.2529
vn 0.7434 -0.5594 0.3666
vn -0.8845 0.3836 -0.2655
vn -0.8549 -0.3073 -0.4180
vn 0.0547 -0.8534 0.5185
vn -0.0476 0.8538 -0.5184
vn 0.0000 0.5470 0.8371
vn -0.7071 -0.5919 0.3868
vn 0.7071 0.5919 -0.3868
vn 0.0431 0.5099 0.8592
vn -0.7058 0.5575 -0.4371
vn -0.4955 0.8050 0.3261
vn -0.5062 0.8001 0.3219
vn -0.5047 0.8056 0.3103
vn -0.4937 0.8106 0.3150
vn 0.7071 -0.5919 0.3868
vn -0.0000 -0.5470 -0.8371
vn 0.1925 -0.6875 -0.7002
vn -0.7071 0.5919 -0.3868
vn 0.6855 -0.7080 0.1697
vn 0.0906 -0.9919 -0.0888
vn -0.5007 0.0329 -0.8650
vn 0.4971 -0.0271 0.8673
usemtl None
s off
f 13/1/1 3/2/1 4/3/1 14/4/1
f 21/5/2 25/6/2 22/7/2
f 18/8/3 15/9/3 3/10/3 13/11/3 17/12/3
f 20/13/4 14/14/4 4/15/4 16/16/4 19/17/4
f 7/18/5 11/19/5 12/20/5 10/21/5
f 11/19/6 8/22/6 9/23/6 12/20/6
f 9/23/4 10/21/4 12/20/4
f 7/18/3 8/22/3 11/19/3
f 2/24/7 9/23/7 8/22/7 1/25/7
f 1/25/8 8/22/8 7/18/8 5/26/8
f 5/26/9 7/18/9 10/21/9 6/27/9
f 2/24/10 6/27/10 10/21/10 9/23/10
f 23/28/3 26/29/3 24/30/3
f 25/6/11 26/29/11 23/28/11 22/7/11
f 21/5/12 24/30/12 26/29/12 25/6/12
f 19/31/13 18/32/13 22/7/13 23/28/13
f 3/2/14 15/33/14 16/34/14 4/3/14
f 17/35/15 20/36/15 24/30/15 21/5/15
f 19/31/16 23/28/16 24/30/16 20/36/16
f 6/27/3 2/24/3 19/31/3 20/36/3
f 1/25/4 5/26/4 17/35/4 18/32/4
f 5/26/17 6/27/17 20/36/17 17/35/17
f 2/24/18 1/25/18 18/32/18 19/31/18
f 39/37/19 29/38/19 30/39/19 40/40/19
f 47/41/20 51/42/20 48/43/20
f 44/44/21 41/45/21 29/46/21 39/47/21 43/48/21
f 46/49/20 40/50/20 30/51/20 42/52/20 45/53/20
f 33/54/22 37/55/22 38/56/22 36/57/22
f 37/55/23 34/58/23 35/59/23 38/56/23
f 35/59/20 36/57/20 38/56/20
f 33/54/21 34/58/21 37/55/21
f 28/60/24 35/59/24 34/58/24 27/61/24
f 27/61/25 34/58/25 33/54/25 31/62/25
f 31/62/26 33/54/26 36/57/26 32/63/26
f 28/60/27 32/63/27 36/57/27 35/59/27
f 49/64/21 52/65/21 50/66/21
f 51/42/28 52/65/28 49/64/28 48/43/28
f 47/41/29 50/66/29 52/65/29 51/42/29
f 45/67/30 44/68/30 48/43/30 49/64/30
f 29/38/31 41/69/31 42/70/31 30/39/31
f 43/71/32 46/72/32 50/66/32 47/41/32
f 45/67/33 49/64/33 50/66/33 46/72/33
f 32/63/21 28/60/21 45/67/21 46/72/21
f 27/61/20 31/62/20 43/71/20 44/68/20
f 31/62/34 32/63/34 46/72/34 43/71/34
f 28/60/35 27/61/35 44/68/35 45/67/35
f 65/73/36 55/74/36 56/75/36 66/76/36
f 73/77/37 77/78/37 74/79/37
f 70/80/38 67/81/38 55/82/38 65/83/38 69/84/38
f 72/85/37 66/86/37 56/87/37 68/88/37 71/89/37
f 59/90/39 63/91/39 64/92/39 62/93/39
f 63/91/40 60/94/40 61/95/40 64/92/40
f 61/95/37 62/93/37 64/92/37
f 59/90/38 60/94/38 63/91/38
f 54/96/41 61/95/41 60/94/41 53/97/41
f 53/97/42 60/94/42 59/90/42 57/98/42
f 57/98/43 59/90/43 62/93/43 58/99/43
f 54/96/44 58/99/44 62/93/44 61/95/44
f 75/100/38 78/101/38 76/102/38
f 77/78/45 78/101/45 75/100/45 74/79/45
f 73/77/46 76/102/46 78/101/46 77/78/46
f 71/103/47 70/104/47 74/79/47 75/100/47
f 55/74/48 67/105/48 68/106/48 56/75/48
f 69/107/49 72/108/49 76/102/49 73/77/49
f 71/103/50 75/100/50 76/102/50 72/108/50
f 58/99/38 54/96/38 71/103/38 72/108/38
f 53/97/37 57/98/37 69/107/37 70/104/37
f 57/98/51 58/99/51 72/108/51 69/107/51
f 54/96/52 53/97/52 70/104/52 71/103/52
